<svg width="28" height="28" viewBox="0 0 28 28" fill="none" xmlns="http://www.w3.org/2000/svg">
<path d="M25.4937 8.62272C25.3571 8.11535 25.0897 7.65275 24.7181 7.28122C24.3466 6.90969 23.884 6.64225 23.3766 6.50569C21.5082 6 14 6 14 6C14 6 6.49183 6 4.62336 6.50569C4.11599 6.64225 3.6534 6.90969 3.28186 7.28122C2.91033 7.65275 2.6429 8.11535 2.50633 8.62272C2.15745 10.5283 1.98814 12.4624 2.00064 14.3995C1.98814 16.3367 2.15745 18.2708 2.50633 20.1764C2.6429 20.6837 2.91033 21.1463 3.28186 21.5179C3.6534 21.8894 4.11599 22.1568 4.62336 22.2934C6.49183 22.7991 14 22.7991 14 22.7991C14 22.7991 21.5082 22.7991 23.3766 22.2934C23.884 22.1568 24.3466 21.8894 24.7181 21.5179C25.0897 21.1463 25.3571 20.6837 25.4937 20.1764C25.8426 18.2708 26.0119 16.3367 25.9994 14.3995C26.0119 12.4624 25.8426 10.5283 25.4937 8.62272ZM11.6001 17.9994V10.7997L17.8312 14.3995L11.6001 17.9994Z" fill="#111111"/>
</svg>
